<?xml version="1.0" encoding="utf-8"?>
<!-- Generator: Adobe Illustrator 21.1.0, SVG Export Plug-In . SVG Version: 6.00 Build 0)  -->
<svg version="1.1" id="Layer_1" xmlns="http://www.w3.org/2000/svg" xmlns:xlink="http://www.w3.org/1999/xlink" x="0px" y="0px"
	 viewBox="0 0 100 100" style="enable-background:new 0 0 100 100;" xml:space="preserve">
<style type="text/css">
	.st0{fill:#06BEB6;}
	.st1{fill:#FFFFFF;}
</style>
<g>
	<path class="st0" d="M92.2,71.2c-0.4-0.9-0.9-1.9-1.6-2.7c0.5-1,2.7-6.3,2.7-7.2c0-0.1-0.1-0.3-0.2-0.4c-0.6-0.4-6.2-3.6-6.5-3.6
		l-0.3,0.1c-1.8,1.8-3.3,3.8-4.8,5.8c-0.5,0-1-0.1-1.6-0.1c-0.5,0-1,0.1-1.6,0.1c-0.5-0.8-4.4-5.9-5.1-5.9c-0.3,0-5.8,3.3-6.5,3.6
		c-0.2,0.1-0.2,0.3-0.2,0.4c0,0.9,2.2,6.1,2.7,7.2c-0.6,0.8-1.2,1.8-1.6,2.7c-1,0.1-7.8,0.8-7.8,1.6v7.3c0,0.8,6.7,1.5,7.8,1.6
		c0.4,1,0.9,1.9,1.6,2.7c-0.5,1-2.7,6.3-2.7,7.2c0,0.1,0,0.3,0.2,0.4c0.6,0.4,6.2,3.7,6.5,3.7c0.7,0,4.6-5.2,5.1-6
		c0.5,0.1,1,0.1,1.6,0.1c0.5,0,1,0,1.6-0.1c0.5,0.8,4.4,6,5.1,6c0.3,0,5.8-3.3,6.5-3.7c0.2-0.1,0.2-0.2,0.2-0.4
		c0-0.9-2.2-6.1-2.7-7.2c0.6-0.8,1.2-1.7,1.6-2.7c1-0.1,7.8-0.8,7.8-1.6v-7.3C100,72,93.3,71.3,92.2,71.2z M80,83.1
		c-3.7,0-6.7-3-6.7-6.7c0-3.6,3-6.7,6.7-6.7c3.6,0,6.7,3,6.7,6.7S83.7,83.1,80,83.1z M92.2,17.9c-0.4-0.9-0.9-1.9-1.6-2.7
		c0.5-1,2.7-6.2,2.7-7.2c0-0.1-0.1-0.3-0.2-0.4C92.5,7.3,86.9,4,86.7,4l-0.3,0.1c-1.8,1.8-3.3,3.8-4.8,5.8c-0.5,0-1-0.1-1.6-0.1
		c-0.5,0-1,0.1-1.6,0.1C77.9,9.1,74,4,73.3,4c-0.3,0-5.8,3.3-6.5,3.6c-0.2,0.1-0.2,0.3-0.2,0.4c0,0.9,2.2,6.1,2.7,7.2
		c-0.6,0.8-1.2,1.8-1.6,2.7c-1,0.1-7.8,0.8-7.8,1.6v7.3c0,0.8,6.7,1.5,7.8,1.6c0.4,1,0.9,1.9,1.6,2.7c-0.5,1-2.7,6.3-2.7,7.2
		c0,0.1,0,0.3,0.2,0.4c0.6,0.4,6.2,3.7,6.5,3.7c0.7,0,4.6-5.2,5.1-6c0.5,0,1,0.1,1.6,0.1c0.5,0,1-0.1,1.6-0.1c0.5,0.8,4.4,6,5.1,6
		c0.3,0,5.8-3.3,6.5-3.7c0.2-0.1,0.2-0.2,0.2-0.4c0-0.9-2.2-6.2-2.7-7.2c0.6-0.8,1.2-1.7,1.6-2.7c1-0.1,7.8-0.8,7.8-1.6v-7.3
		C100,18.7,93.3,18,92.2,17.9z M80,29.8c-3.7,0-6.7-3-6.7-6.7c0-3.6,3-6.7,6.7-6.7c3.6,0,6.7,3,6.7,6.7C86.7,26.8,83.7,29.8,80,29.8
		z M65.4,43.5l-7.9-1.2c-0.5-1.5-1.1-2.9-1.8-4.3c1.5-2,3-3.9,4.5-5.9c0.2-0.3,0.4-0.6,0.4-1c0-1.5-6.1-7.1-7.5-8.3
		c-0.3-0.3-0.7-0.4-1.1-0.4c-0.4,0-0.7,0.1-1,0.4l-6.2,4.6c-1.3-0.6-2.5-1.2-3.9-1.6l-1.2-8c-0.1-0.7-0.8-1.3-1.6-1.3h-9.7
		c-0.7,0-1.4,0.5-1.6,1.3c-0.7,2.5-0.9,5.4-1.2,8c-1.4,0.5-2.7,1-4,1.7l-6-4.7c-0.3-0.2-0.7-0.4-1.1-0.4c-1.5,0-7.3,6.3-8.4,7.7
		c-0.3,0.3-0.4,0.7-0.4,1c0,0.4,0.2,0.7,0.4,1c1.7,2,3.2,3.9,4.7,6c-0.7,1.3-1.3,2.6-1.7,4l-8.1,1.3C0.6,43.5,0,44.2,0,44.9v9.6
		c0,0.7,0.5,1.4,1.3,1.5l7.9,1.3c0.5,1.5,1.1,2.9,1.8,4.3c-1.5,2-3.1,4-4.6,5.9c-0.2,0.3-0.4,0.6-0.4,1c0,1.5,6.1,7.1,7.5,8.3
		c0.3,0.3,0.7,0.4,1.1,0.4c0.4,0,0.8-0.1,1.1-0.4l6.1-4.6c1.3,0.6,2.6,1.2,3.9,1.6l1.2,8c0.1,0.7,0.8,1.3,1.6,1.3h9.7
		c0.7,0,1.3-0.5,1.6-1.3c0.7-2.6,0.9-5.4,1.2-8.1c1.4-0.4,2.7-0.9,4-1.6l6,4.7c0.3,0.2,0.7,0.4,1.1,0.4c1.5,0,7.3-6.4,8.4-7.8
		c0.3-0.3,0.4-0.6,0.4-1c0-0.4-0.2-0.7-0.4-1c-1.7-2-3.2-3.9-4.7-6c0.7-1.3,1.2-2.6,1.7-4l8.1-1.3c0.7-0.1,1.2-0.9,1.2-1.6v-9.6
		C66.7,44.3,66.2,43.7,65.4,43.5z M33.4,63.1c-7.3,0-13.3-6-13.3-13.3c0-7.3,6-13.3,13.3-13.3c7.3,0,13.3,6,13.3,13.3
		C46.7,57.1,40.7,63.1,33.4,63.1z"/>
	<path class="st1" d="M86.7,23.2c0,3.6-3,6.7-6.7,6.7c-3.7,0-6.7-3-6.7-6.7c0-3.6,3-6.7,6.7-6.7C83.7,16.5,86.7,19.5,86.7,23.2z"/>
	<path class="st1" d="M86.7,76.5c0,3.6-3,6.7-6.7,6.7c-3.7,0-6.7-3-6.7-6.7c0-3.6,3-6.7,6.7-6.7C83.7,69.8,86.7,72.8,86.7,76.5z"/>
	<path class="st1" d="M46.7,49.8c0,7.3-6,13.3-13.3,13.3c-7.3,0-13.3-6-13.3-13.3c0-7.3,6-13.3,13.3-13.3
		C40.7,36.5,46.7,42.5,46.7,49.8z"/>
</g>
</svg>
