<!--?xml version="1.0" encoding="utf-8"?-->
<!-- Generator: Adobe Illustrator 22.0.0, SVG Export Plug-In . SVG Version: 6.00 Build 0)  -->
<svg version="1.1" id="Layer_3" xmlns="http://www.w3.org/2000/svg" xmlns:xlink="http://www.w3.org/1999/xlink" x="0px" y="0px" viewBox="0 0 150 150" height="150px" style="" xml:space="preserve">
<style type="text/css">
	.st0{fill:none;stroke:#474747;stroke-width:19;stroke-linecap:round;stroke-linejoin:round;stroke-miterlimit:10;}
	.st1{fill:none;stroke:#474747;stroke-width:20;stroke-linecap:square;stroke-linejoin:round;stroke-miterlimit:10;}
</style>
<path class="st0 BqZpLosS_0" d="M138,107.2V30.9c0-6.9-5.5-12.4-12.3-12.4h-0.4c-6.8,0-12.3,5.6-12.3,12.4v28.2v35.4c0,6.7-5.5,12.1-12.3,12.1
	h-0.4c-6.8,0-12.3-5.4-12.3-12.1c0,0,0-28.7,0-28.7V30.9c0-6.9-5.6-12.4-12.6-12.4h-0.4c-6.9,0-13.1,5.5-13.1,12.3
	c0,0,0,44.7,0,44.7v44.9c0,6.8-5.1,12.4-12,12.4h-0.4c-6.9,0-12.5-5.5-12.5-12.3c0,0,0-31.9,0-31.9V31.2c0-6.8-5.7-12.7-12.6-12.7
	h-0.4c-6.9,0-12.4,5.9-12.4,12.7v76.5"></path>
<g id="Layer_4">
	<path class="st1 BqZpLosS_1" d="M13.2,68.8L36.4,68.8"></path>
</g>
<style>.BqZpLosS_0{stroke-dasharray:656 658;stroke-dashoffset:657;animation:BqZpLosS_draw 2800ms ease-in-out 0ms forwards;}.BqZpLosS_1{stroke-dasharray:24 26;stroke-dashoffset:25;animation:BqZpLosS_draw 2800ms ease-in-out 1400ms forwards;}@keyframes BqZpLosS_draw{100%{stroke-dashoffset:0;}}@keyframes BqZpLosS_fade{0%{stroke-opacity:1;}95.23809523809524%{stroke-opacity:1;}100%{stroke-opacity:0;}}</style></svg>
