<?xml version="1.0" encoding="utf-8"?>
<!-- Generator: Adobe Illustrator 22.0.0, SVG Export Plug-In . SVG Version: 6.00 Build 0)  -->
<svg version="1.1" id="logo_name" class="logo-name-file" xmlns="http://www.w3.org/2000/svg" xmlns:xlink="http://www.w3.org/1999/xlink" x="0px" y="0px" height="150px"
	 viewBox="0 0 732 300" style="enable-background:new 0 0 732 300;" xml:space="preserve">
<style type="text/css">
	.st0{fill:#474747;}
</style>
<g>
	<path class="st0" d="M114.5,124.2H82.6l-5.8-18.5H38.6l-6,18.5H0.6L45.8,0h23.6L114.5,124.2z M68.8,80.2L58.4,47.1L47.2,80.2H68.8z
		"/>
	<path class="st0" d="M224,124.2h-26.7l-39.8-62.4v62.4h-30.5V0h26.7l39.8,62.4V0H224V124.2z"/>
	<path class="st0" d="M341.7,62.1v10.1c0,6-0.3,11.1-0.8,15.4c-0.5,4.2-1.7,8.4-3.6,12.5c-1.9,4.1-4.7,8.1-8.5,11.9
		c-8.1,8.1-19.3,12.2-33.4,12.2h-46V0h46c14.2,0,25.3,4.1,33.4,12.2c3.8,3.8,6.6,7.8,8.5,11.9c1.9,4.1,3.1,8.3,3.6,12.5
		c0.5,4.2,0.8,9.4,0.8,15.4V62.1z M311.2,62.1c0-10.2-0.2-17-0.6-20.2c-0.4-3.3-1.3-5.8-2.6-7.7c-3.1-4.7-8-7-14.7-7h-13.5V97h13.5
		c6.7,0,11.6-2.3,14.7-7c1-1.5,1.6-2.9,2-4.4c0.4-1.4,0.7-3.9,0.9-7.5C311.1,74.7,311.2,69.3,311.2,62.1z"/>
	<path class="st0" d="M460.9,124.2h-35.3l-22-46.3h-10.3v46.3h-30.5V0H412c8.9,0,16.5,1.9,22.9,5.6c6.4,3.7,11.2,8.6,14.5,14.7
		c3.3,6.1,5,12.6,5,19.7c0,7.8-2,14.4-5.9,20s-8.7,9.7-14.3,12.5L460.9,124.2z M423.9,40c0-2.2-0.5-4.3-1.6-6.2
		c-1.1-1.9-2.6-3.5-4.6-4.6c-2-1.2-4.4-1.7-7.1-1.7h-17.3v25h17.3c2.7,0,5-0.6,7.1-1.7c2-1.1,3.5-2.7,4.6-4.6
		C423.4,44.3,423.9,42.2,423.9,40z"/>
	<path class="st0" d="M561,124.2h-84.4V0H561v27.2H507V48h46.1v27.2H507V97H561V124.2z"/>
	<path class="st0" d="M728,0l-34,124.2h-25L649,63l-20.1,61.2h-24.8L570,0h31.9l16.2,65.6L638.2,0h21.6l20,65.6L696.1,0H728z"/>
</g>
<g>
	<path class="st0" d="M115.8,298.7H85.6v-59l-17.5,30.4H48.7l-17.5-30.4v59H1V175.5h29.8l27.6,54.3l27.7-54.3h29.8V298.7z"/>
	<path class="st0" d="M224.6,298.7h-83.8V175.5h83.8v27h-53.5v20.6h45.7v27h-45.7v21.7h53.5V298.7z"/>
	<path class="st0" d="M342.3,298.7h-26.5l-39.5-62v62h-30.3V175.5h26.5l39.5,62v-62h30.3V298.7z"/>
	<path class="st0" d="M397.5,298.7h-30.3V175.5h30.3V298.7z"/>
	<path class="st0" d="M511.9,259.6c-1.1,6.5-3,12.4-5.8,17.5c-2.8,5.2-6.2,9.4-10.4,12.7c-4.1,3.3-8.8,5.8-14,7.4
		c-5.2,1.6-10.7,2.5-16.6,2.5c-13.7,0-25.1-4.6-34.2-13.9c-5.4-5.4-8.8-11.6-10.3-18.4c-1.5-6.9-2.2-15.6-2.2-26.2v-4.1v-4.1
		c0-10.6,0.7-19.3,2.2-26.2s4.9-13.1,10.3-18.5c4.6-4.6,9.7-8.1,15.2-10.4c5.5-2.3,11.8-3.4,19-3.4c6.1,0,11.8,0.8,16.9,2.5
		c5.1,1.7,9.7,4.1,13.8,7.4s7.5,7.5,10.3,12.6c2.8,5.1,4.7,11,5.8,17.6h-30.8c-1.1-4-2.8-7.2-5.2-9.6s-5.9-3.6-10.6-3.6
		c-2.6,0-4.9,0.5-7,1.4c-2.1,1-3.7,2.2-4.9,3.7c-1.1,1.4-1.9,3-2.6,4.9c-0.6,1.9-1.2,4.8-1.5,8.6c-0.4,3.9-0.5,9.5-0.5,17
		c0,10,0.4,17,1.1,21s1.9,7.2,3.5,9.4c2.7,3.5,6.7,5.2,11.9,5.2c4.6,0,8.1-1.2,10.5-3.6c2.5-2.4,4.2-5.6,5.3-9.6H511.9z"/>
	<path class="st0" d="M620.6,298.7h-30.3v-48.9h-32.2v48.9h-30.3V175.5h30.3v47.4h32.2v-47.4h30.3V298.7z"/>
</g>
</svg>
